<?xml version="1.0" encoding="utf-8"?>
<!-- Generator: Adobe Illustrator 19.0.1, SVG Export Plug-In . SVG Version: 6.00 Build 0)  -->
<svg version="1.1" xmlns="http://www.w3.org/2000/svg" xmlns:xlink="http://www.w3.org/1999/xlink" x="0px" y="0px"
	 viewBox="0 0 355 191.7" style="enable-background:new 0 0 355 191.7;" xml:space="preserve">
<style type="text/css">
	.st0{display:none;}
	.st1{display:inline;fill:#6DBF56;}
	.st2{fill:#C1C1C0;}
	.st3{fill:none;stroke:#C1C1C0;stroke-miterlimit:10;}
	.st4{fill:#407ABE;}
	.st5{fill:#FFFFFF;}
	.st6{fill:none;stroke:#407ABE;stroke-width:2;stroke-miterlimit:10;}
	.st7{fill:none;stroke:#407ABE;stroke-miterlimit:10;}
	.st8{fill:none;stroke:#60ABDF;stroke-width:2;stroke-miterlimit:10;}
	.st9{fill:none;stroke:#5691C1;stroke-width:2;stroke-miterlimit:10;}
</style>
<g id="Layer_2" class="st0">
	<rect x="-13" y="-11" class="st1" width="377" height="212"/>
</g>
<g id="Layer_1">
	<path class="st2" d="M38.3,36.9l-5.6-5.6c1.6-1.7,2.5-4,2.5-6.5c0-5.4-4.4-9.8-9.8-9.8s-9.8,4.4-9.8,9.8s4.4,9.8,9.8,9.8
		c2.5,0,4.8-1,6.5-2.5l5.6,5.6L38.3,36.9z M16.7,24.8c0-4.8,3.9-8.8,8.8-8.8s8.8,3.9,8.8,8.8s-3.9,8.8-8.8,8.8S16.7,29.6,16.7,24.8z
		"/>
	<g>
		<circle class="st3" cx="75" cy="25" r="12.1"/>
		<polygon class="st4" points="76.4,29 72.5,25 76.5,21 77.2,21.7 73.9,25 77.1,28.3 		"/>
	</g>
	<g>
		<circle class="st3" cx="125.4" cy="25" r="12.1"/>
		<polygon class="st4" points="123.9,29 123.2,28.3 126.5,25 123.3,21.7 124,21 127.9,25 		"/>
	</g>
	<path class="st5" d="M174,14.8c-5.6,0-10.2,4.6-10.2,10.2s4.6,10.2,10.2,10.2c5.6,0,10.2-4.6,10.2-10.2S179.7,14.8,174,14.8z
		 M177,29.3l-3-3l-3,3l-1.4-1.4l3-3l-3-3l1.4-1.4l3,3l3-3l1.4,1.4l-3,3l3,3L177,29.3z"/>
	<g>
		<circle class="st6" cx="25" cy="75" r="18.6"/>
		<line class="st6" x1="25" y1="66" x2="25" y2="83.7"/>
		<line class="st6" x1="16.2" y1="74.8" x2="33.8" y2="74.8"/>
	</g>
	<g>
		<circle class="st6" cx="175" cy="75" r="12.5"/>
		<line class="st6" x1="175" y1="69" x2="175" y2="80.8"/>
		<line class="st6" x1="169.1" y1="74.9" x2="180.9" y2="74.9"/>
	</g>
	<circle class="st7" cx="75" cy="75" r="12.1"/>
	<polygon class="st4" points="76.4,79 72.5,75 76.5,71 77.2,71.7 73.9,75 77.1,78.3 	"/>
	<circle class="st7" cx="125.4" cy="75" r="12.1"/>
	<polygon class="st4" points="123.9,79 123.2,78.3 126.5,75 123.3,71.7 124,71 127.9,75 	"/>
	<circle class="st8" cx="25" cy="125" r="18.6"/>
	<line class="st9" x1="25" y1="116" x2="25" y2="133.7"/>
	<line class="st9" x1="16.2" y1="124.8" x2="33.8" y2="124.8"/>
	<circle class="st9" cx="175" cy="125" r="12.5"/>
	<line class="st9" x1="175" y1="119" x2="175" y2="130.8"/>
	<line class="st9" x1="169.1" y1="124.9" x2="180.9" y2="124.9"/>
</g>
</svg>
